<?xml version="1.0" standalone="no"?>
<!DOCTYPE svg PUBLIC "-//W3C//DTD SVG 20010904//EN"
 "http://www.w3.org/TR/2001/REC-SVG-20010904/DTD/svg10.dtd">
<svg version="1.0" xmlns="http://www.w3.org/2000/svg"
 width="934.000000pt" height="934.000000pt" viewBox="0 0 934.000000 934.000000"
 preserveAspectRatio="xMidYMid meet">
<metadata>
Created by potrace 1.11, written by Peter Selinger 2001-2013
</metadata>
<g transform="translate(0.000000,934.000000) scale(0.100000,-0.100000)"
fill="#000000" stroke="none">
<path d="M3300 9265 c0 -3 24 -30 54 -59 30 -30 51 -58 48 -62 -4 -4 -1 -4 6
0 7 4 12 2 12 -6 0 -19 56 -79 65 -70 5 4 5 -1 2 -11 -4 -10 -3 -16 2 -12 5 3
12 1 16 -5 3 -5 0 -10 -7 -10 -9 -1 -7 -5 4 -14 10 -7 15 -16 11 -19 -3 -4 -1
-7 5 -7 7 0 12 -7 12 -15 0 -8 5 -15 11 -15 5 0 8 -4 4 -9 -3 -5 3 -17 12 -27
10 -10 18 -20 18 -23 0 -3 4 -5 9 -3 5 2 6 -4 3 -12 -4 -9 -2 -18 3 -21 5 -3
7 -12 3 -20 -3 -8 0 -15 7 -15 6 0 9 4 6 9 -3 5 4 22 16 37 20 26 20 27 2 12
-11 -10 -24 -18 -28 -18 -5 0 0 8 11 18 10 9 12 13 4 7 -10 -7 -10 -2 3 18 20
30 29 35 20 12 -4 -8 -1 -15 5 -15 6 0 10 3 10 8 -1 4 -1 14 0 22 1 13 3 13
10 1 6 -9 4 -22 -5 -36 -8 -12 -11 -25 -7 -28 13 -13 22 -7 18 13 -2 11 1 23
7 26 7 5 8 2 3 -6 -6 -9 -4 -11 5 -5 9 6 11 4 5 -5 -6 -9 -4 -11 6 -5 11 7 11
5 -1 -11 -14 -18 -14 -18 5 -4 16 11 17 11 8 0 -17 -19 -16 -33 1 -27 11 4 13
1 9 -10 -5 -13 -2 -15 11 -10 11 5 15 3 10 -5 -5 -7 -3 -8 6 -3 9 5 11 4 6 -3
-5 -8 -1 -10 11 -6 15 5 16 4 3 -5 -13 -9 -13 -11 0 -11 12 0 13 -2 1 -9 -7
-5 -9 -11 -5 -13 5 -3 3 -3 -5 -1 -8 2 -3 -7 12 -21 26 -24 37 -43 18 -31 -22
13 -20 -17 3 -40 14 -14 20 -25 14 -25 -7 0 -3 -7 8 -16 10 -8 12 -12 4 -8
-13 7 -13 6 0 -11 12 -15 12 -17 1 -10 -10 6 -12 4 -7 -4 5 -7 10 -10 13 -7 9
9 32 -20 29 -38 -1 -9 -8 -22 -16 -29 -10 -10 -11 -9 -5 2 6 10 4 12 -6 6 -11
-7 -12 -6 -2 6 10 13 10 16 -1 16 -8 0 -13 -8 -11 -19 2 -10 0 -18 -6 -18 -5
0 -9 5 -9 12 0 6 -3 8 -7 4 -5 -4 -1 -13 8 -19 9 -7 17 -15 17 -19 1 -5 5 -8
10 -9 4 0 12 -5 18 -10 7 -6 16 -4 23 5 7 8 8 17 3 20 -5 3 -7 26 -4 52 3 31
1 44 -6 40 -6 -3 -13 -2 -17 4 -3 5 -1 10 4 10 9 0 9 37 0 48 -1 1 -2 5 -3 10
-7 29 -32 82 -39 82 -4 0 -6 4 -3 9 3 5 -1 14 -9 21 -8 7 -12 16 -9 21 3 5 -2
12 -10 15 -9 3 -14 9 -11 13 2 4 -11 24 -30 44 -18 19 -30 38 -27 42 4 4 3 5
-3 3 -5 -1 -11 1 -12 6 -1 5 -13 16 -27 26 -15 9 -25 18 -23 21 2 2 -16 22
-40 45 -24 23 -43 38 -43 35 0 -3 -12 8 -26 24 -14 17 -31 30 -37 30 -7 1 -11
6 -9 13 1 7 -1 11 -5 10 -5 -2 -23 11 -41 27 -19 17 -37 30 -41 30 -4 0 -14 7
-23 15 -30 29 -68 60 -68 55z m174 -167 c-3 -4 0 -8 5 -8 6 0 11 4 11 9 0 5
35 -25 78 -67 l77 -76 -25 -25 c-14 -14 -31 -26 -38 -27 -8 -2 -11 0 -8 3 3 4
-1 15 -11 25 -12 13 -13 18 -3 18 9 0 7 5 -6 15 -10 8 -15 15 -11 15 4 0 -1
10 -13 22 -11 12 -17 24 -14 27 3 3 9 -1 14 -9 6 -8 10 -10 10 -5 0 6 -25 32
-55 59 -30 27 -52 52 -50 57 3 4 -6 16 -20 27 -14 11 -25 24 -25 28 0 4 20
-12 45 -36 24 -24 42 -47 39 -52z m259 -236 c14 -15 14 -19 3 -19 -8 0 -14 5
-13 11 1 6 -4 10 -11 8 -8 -1 -11 2 -7 8 8 13 9 13 28 -8z m52 -90 c1 -4 8
-20 17 -37 8 -16 13 -36 10 -44 -3 -9 0 -11 7 -7 6 4 11 4 10 -1 -1 -4 0 -10
1 -13 7 -20 7 -41 -2 -47 -6 -3 -8 -1 -4 5 3 6 2 13 -4 17 -6 4 -8 11 -5 16 4
5 -1 12 -10 15 -16 7 -42 45 -28 43 20 -3 23 3 11 24 -14 25 -20 52 -10 42 4
-4 7 -10 7 -13z m60 -241 c-3 -5 -1 -12 5 -16 6 -4 8 -11 4 -16 -4 -6 -10 -6
-18 0 -7 6 -15 9 -18 6 -2 -3 -5 2 -5 10 0 8 4 12 8 9 4 -2 10 0 14 6 3 5 8
10 11 10 3 0 3 -4 -1 -9z"/>
<path d="M3440 9126 c0 -2 8 -10 18 -17 15 -13 16 -12 3 4 -13 16 -21 21 -21
13z"/>
<path d="M3500 9075 c8 -11 23 -26 33 -34 10 -7 16 -19 13 -27 -3 -7 -1 -16 5
-19 5 -4 7 -10 4 -15 -3 -4 2 -10 10 -14 8 -3 12 -11 9 -19 -3 -8 3 -20 13
-28 10 -7 15 -10 11 -5 -4 5 2 16 14 26 l21 17 -21 15 c-12 8 -20 17 -17 20 3
2 -21 26 -53 53 -31 27 -50 41 -42 30z m83 -91 c-4 -12 -8 -12 -18 3 -16 22
-8 38 10 23 8 -6 11 -18 8 -26z m25 -29 c-2 -6 -6 -9 -10 -7 -5 1 -8 -3 -8
-10 0 -6 -2 -9 -5 -6 -9 8 6 39 17 36 5 -2 8 -8 6 -13z"/>
<path d="M3790 8699 c0 -5 5 -7 10 -4 6 3 10 8 10 11 0 2 -4 4 -10 4 -5 0 -10
-5 -10 -11z"/>
<path d="M3629 8874 c-1 -5 -1 -12 0 -16 0 -5 -4 -8 -10 -8 -5 0 -8 -4 -4 -9
3 -5 1 -12 -4 -16 -15 -9 0 -37 16 -31 9 4 11 2 6 -7 -11 -18 -12 -36 -2 -43
5 -3 6 -10 3 -16 -4 -7 -2 -8 4 -4 7 4 10 -2 10 -16 -3 -45 2 -78 11 -78 5 0
8 8 6 18 -4 26 5 34 23 20 15 -11 6 3 -27 42 -2 3 -1 -3 2 -12 4 -10 2 -18 -4
-18 -6 0 -9 8 -7 18 2 9 8 17 15 17 16 0 29 15 15 16 -27 3 -31 4 -39 13 -5 5
-2 6 6 1 10 -6 12 -4 6 5 -6 9 -4 11 5 5 9 -5 11 -4 6 3 -4 8 -2 10 7 6 8 -3
18 -1 22 5 4 7 -1 9 -12 5 -15 -5 -15 -4 -3 4 8 6 18 8 22 6 5 -3 7 0 6 7 -2
6 3 13 10 15 7 1 8 0 3 -2 -6 -3 -7 -12 -4 -20 3 -8 0 -14 -7 -14 -6 0 -8 -5
-5 -11 4 -6 14 -8 24 -5 11 4 11 2 -4 -10 -17 -14 -17 -16 -2 -10 12 4 16 2
11 -6 -4 -7 -3 -8 4 -4 7 4 10 -1 7 -14 -2 -12 0 -18 6 -14 6 3 8 9 5 12 -3 3
-1 11 5 19 9 10 6 18 -12 33 -17 14 -21 22 -12 27 8 6 -1 20 -28 44 -21 20
-39 31 -39 26 0 -6 -9 -2 -20 8 -11 10 -21 14 -21 9z m43 -29 c3 3 12 -3 21
-13 16 -18 15 -20 -22 -50 -24 -19 -38 -26 -37 -17 1 8 5 18 9 21 13 13 7 26
-8 21 -8 -4 -17 -1 -21 5 -4 7 -3 8 4 4 12 -7 15 1 15 37 0 16 1 16 17 2 9 -8
19 -13 22 -10z"/>
<path d="M3644 8838 c1 -7 5 -19 10 -26 4 -7 4 -19 -1 -25 -4 -7 0 -4 11 8 10
11 20 18 21 15 2 -3 6 -2 9 1 4 3 0 12 -9 19 -8 7 -15 9 -15 5 0 -4 -6 -2 -14
4 -11 10 -14 9 -12 -1z m42 -20 c3 -4 -1 -5 -10 -4 -8 1 -18 5 -22 8 -3 4 1 5
10 4 8 -1 18 -5 22 -8z"/>
<path d="M3970 8855 c8 -11 21 -24 28 -28 6 -4 12 -15 12 -22 0 -8 5 -15 11
-15 5 0 7 -4 4 -10 -3 -5 -1 -10 5 -10 6 0 9 -4 5 -9 -3 -5 0 -15 7 -23 7 -7
13 -19 13 -27 0 -7 10 -18 23 -22 15 -6 21 -5 17 1 -3 6 1 7 9 4 23 -9 8 -26
-15 -19 -16 5 -18 2 -15 -17 3 -13 5 -25 6 -28 2 -3 2 -7 2 -10 0 -4 10 -6 24
-6 13 0 24 3 24 6 0 4 7 7 15 7 8 0 12 -4 9 -9 -3 -5 -2 -8 3 -7 28 5 36 -2
18 -15 -16 -11 -17 -17 -7 -29 11 -12 8 -14 -18 -12 -29 2 -30 2 -14 -16 9
-10 13 -22 10 -28 -4 -5 -3 -12 2 -15 11 -7 12 26 1 40 -5 7 -3 11 6 11 8 0
11 -5 8 -11 -4 -6 2 -4 12 4 17 13 18 13 10 0 -8 -13 -7 -13 8 -1 11 9 17 10
17 2 0 -6 -5 -11 -12 -11 -6 0 -3 -7 8 -16 17 -14 16 -14 -8 0 -30 17 -39 7
-13 -14 8 -7 15 -9 15 -6 0 4 8 2 18 -3 15 -8 18 -6 17 7 0 10 -4 23 -9 30 -4
6 -4 12 0 12 4 0 -3 9 -15 19 -16 14 -18 21 -9 24 11 4 10 6 0 6 -7 1 -11 5
-7 10 3 6 -9 26 -26 45 -17 20 -28 36 -24 36 4 0 -14 22 -41 50 -26 27 -52 46
-57 43 -6 -4 -8 1 -4 10 4 10 2 16 -6 14 -7 -1 -11 3 -11 8 1 6 -15 23 -35 40
-21 17 -30 21 -21 10z m130 -136 c7 -12 4 -15 -13 -14 -12 1 -20 4 -17 7 3 3
-3 15 -13 25 -9 11 -14 23 -10 26 7 8 40 -19 53 -44z m30 -34 c-1 -4 11 -21
27 -38 15 -17 21 -26 13 -20 -23 17 -23 17 -47 5 -23 -12 -35 -4 -39 26 -2 10
1 10 11 2 9 -8 15 -6 20 7 5 10 7 23 6 28 -2 6 0 7 4 3 4 -3 6 -9 5 -13z m57
-102 c-4 -3 -1 -13 6 -22 11 -14 10 -14 -5 -2 -21 15 -23 31 -6 31 6 0 8 -3 5
-7z"/>
<path d="M4063 8742 c10 -10 14 -22 10 -27 -5 -4 -2 -5 5 -1 11 6 10 12 -4 27
-9 10 -19 19 -22 19 -3 0 2 -8 11 -18z"/>
<path d="M4125 8660 c6 -9 -8 -14 -28 -11 -5 1 -6 -3 -2 -9 4 -7 12 -7 24 0
10 5 22 6 27 2 5 -4 2 1 -5 11 -14 18 -26 24 -16 7z"/>
<path d="M3681 8751 c-10 -6 -9 -10 4 -15 14 -5 15 -9 5 -21 -10 -13 -9 -19 5
-35 20 -22 13 -39 -8 -21 -12 9 -14 8 -14 -6 0 -36 -3 -44 -15 -37 -7 5 -8 3
-3 -6 12 -20 12 -123 0 -139 -7 -11 -7 -13 3 -7 6 4 12 3 12 -3 0 -5 -4 -12
-9 -16 -5 -3 -8 -21 -6 -40 2 -19 0 -33 -4 -30 -4 2 -7 -6 -6 -18 1 -12 -3
-28 -8 -36 -11 -13 -17 -32 -19 -58 -1 -7 -5 -13 -10 -13 -5 0 -6 -10 -3 -21
4 -12 3 -19 -2 -16 -9 6 -39 -60 -35 -75 1 -5 -2 -8 -7 -8 -9 0 -23 -29 -19
-40 1 -3 -5 -16 -12 -30 -8 -14 -14 -28 -15 -32 0 -3 -3 -10 -7 -14 -13 -13
-9 -24 10 -24 14 0 15 -2 2 -9 -8 -6 -19 -7 -25 -4 -5 4 -7 3 -3 -2 4 -4 3
-14 -3 -21 -7 -8 -7 -14 1 -19 5 -3 10 -11 10 -16 0 -6 -5 -7 -12 -3 -6 4 -8
3 -4 -4 3 -6 2 -13 -4 -17 -17 -10 -11 -24 9 -22 11 0 17 5 14 11 -3 5 -1 6 4
3 7 -5 10 6 7 28 -3 36 6 44 25 22 7 -10 7 -17 0 -24 -8 -8 -8 -13 0 -17 6 -4
11 0 11 8 0 21 17 20 29 -1 7 -12 10 -13 11 -4 0 7 6 11 15 7 23 -8 18 0 -11
19 -15 9 -23 12 -19 5 6 -9 3 -9 -13 -1 -12 6 -24 17 -28 24 -5 9 -4 9 7 0 7
-7 17 -13 22 -13 5 0 1 8 -10 18 -10 9 -12 13 -3 7 13 -9 13 -8 0 9 -12 16
-12 18 -1 11 10 -5 12 -4 7 4 -4 6 -11 9 -16 6 -4 -3 -10 2 -13 10 -4 10 -1
12 10 8 13 -5 15 -2 10 11 -5 12 -3 15 6 10 9 -6 9 -4 1 7 -13 16 -15 51 -2
43 12 -8 29 6 22 18 -4 6 -10 5 -16 -3 -8 -11 -9 -11 -5 1 2 8 8 15 13 16 5 0
17 4 27 9 17 7 17 8 0 20 -17 13 -17 14 0 20 9 4 17 11 17 17 0 5 -6 6 -12 2
-9 -5 -9 -3 1 9 7 9 18 14 23 11 6 -4 5 4 -2 17 -10 22 -10 23 4 5 14 -18 15
-18 13 2 0 11 -5 18 -10 15 -5 -3 -4 3 1 13 6 11 10 22 11 27 1 4 4 7 9 6 4
-1 6 -5 4 -11 -1 -5 1 -7 6 -4 11 6 9 -25 -2 -43 -5 -7 -3 -18 3 -24 8 -8 11
-8 11 2 0 7 5 9 10 6 6 -3 10 -1 10 5 0 7 -7 10 -17 6 -11 -4 -8 2 7 14 15 12
18 18 8 14 -11 -4 -18 -1 -18 6 0 6 4 9 9 5 5 -3 13 0 17 6 5 8 3 9 -7 4 -11
-7 -11 -5 1 10 8 10 10 16 4 12 -6 -3 -11 0 -11 8 0 12 4 12 16 3 9 -7 3 2
-12 19 -19 20 -25 33 -18 38 6 3 8 12 4 18 -11 17 -12 57 -1 51 4 -3 6 -10 3
-15 -4 -5 -1 -9 4 -9 14 0 14 17 1 25 -6 4 -8 11 -4 16 3 5 10 6 16 3 6 -4 8
-1 6 7 -3 8 -11 13 -18 11 -11 -3 -11 0 -1 12 7 9 18 13 25 9 6 -4 5 1 -3 10
-7 9 -17 14 -22 11 -5 -3 -9 0 -9 5 0 6 6 11 13 11 8 0 7 4 -3 10 -8 5 -10 10
-4 10 5 0 15 -5 21 -11 9 -9 12 -7 10 10 -1 16 -6 20 -22 15 -14 -4 -16 -3 -6
4 7 5 9 12 5 14 -5 3 -2 3 6 1 10 -2 8 2 -4 12 -19 14 -12 21 17 16 4 0 7 4 7
10 0 6 -7 8 -17 4 -14 -5 -15 -3 -6 6 18 18 34 1 28 -32 -6 -36 -2 -37 20 -3
15 23 15 27 1 43 -9 10 -13 21 -9 24 3 4 2 7 -3 7 -5 0 -10 10 -11 23 -2 20 0
19 13 -6 13 -24 18 -27 32 -15 9 7 14 8 10 4 -4 -5 -3 -15 3 -23 6 -7 8 -13 5
-13 -4 0 -2 -10 5 -21 9 -17 8 -20 -2 -14 -8 6 -10 4 -4 -6 8 -12 6 -12 -8 0
-11 9 -17 10 -17 2 0 -10 13 -15 33 -12 4 0 7 -3 7 -9 0 -13 -6 -13 -33 1 -21
10 -21 10 -3 -5 11 -9 14 -16 8 -16 -14 0 -12 -21 3 -33 6 -5 2 -6 -8 -3 -12
4 -16 2 -11 -6 5 -7 3 -8 -6 -3 -9 5 -11 4 -6 -3 5 -9 13 -9 26 -2 16 9 18 7
15 -10 -3 -13 0 -18 7 -14 7 4 8 3 4 -4 -4 -8 -2 -10 8 -6 13 5 41 -28 31 -38
-2 -2 4 -4 14 -4 9 0 18 8 18 18 1 10 -5 18 -13 18 -8 0 -14 5 -14 11 0 5 -4
8 -8 5 -11 -6 -24 4 -40 32 -14 25 -7 47 10 36 6 -4 8 -3 5 2 -3 6 -2 16 4 24
5 8 9 10 9 4 0 -6 7 -11 16 -11 12 0 11 5 -7 18 -12 9 -24 24 -26 33 -7 35 -9
41 -17 54 -4 7 -15 11 -24 10 -9 -2 -16 2 -15 9 2 7 -6 17 -17 23 -11 6 -18
15 -15 20 8 13 -9 20 -24 11z m25 -51 c0 -12 -4 -16 -9 -11 -5 5 -6 14 -3 20
10 15 12 14 12 -9z m25 -92 c-11 -11 -13 -10 -7 0 4 7 2 21 -5 30 -12 15 -11
15 6 0 16 -15 17 -20 6 -30z m-55 -303 c1 -23 -1 -24 -16 -10 -9 8 -21 12 -26
8 -5 -5 -1 1 9 13 9 11 15 23 14 26 -2 3 1 2 7 -3 6 -5 11 -21 12 -34z m-91
-164 c3 -5 2 -12 -3 -15 -5 -3 -9 1 -9 9 0 17 3 19 12 6z m-48 -106 c0 -8 -4
-12 -9 -9 -5 3 -6 10 -3 15 9 13 12 11 12 -6z m-8 -68 c-2 -1 -13 -9 -24 -17
-19 -14 -19 -14 -6 3 7 9 18 17 24 17 6 0 8 -1 6 -3z m-19 -61 c0 -2 -8 -10
-17 -17 -16 -13 -17 -12 -4 4 13 16 21 21 21 13z"/>
<path d="M3655 8321 c-3 -5 -2 -12 3 -15 5 -3 9 1 9 9 0 17 -3 19 -12 6z"/>
<path d="M3747 8637 c10 -12 19 -24 21 -26 1 -3 1 6 -1 19 -2 13 -12 24 -21
26 -17 2 -17 1 1 -19z"/>
<path d="M4101 8600 c-11 -6 -11 -50 -1 -50 10 0 6 -105 -5 -112 -6 -5 -5 -8
4 -8 10 0 11 -3 2 -13 -6 -8 -8 -17 -4 -20 3 -4 2 -7 -4 -7 -6 0 -9 -14 -7
-31 2 -18 0 -28 -6 -24 -6 3 -10 1 -10 -4 0 -23 -2 -27 -23 -49 -18 -20 -19
-24 -7 -32 13 -9 7 -14 -12 -11 -4 0 -12 -8 -18 -19 -6 -11 -7 -20 -3 -20 4 0
0 -5 -9 -10 -10 -6 -15 -19 -13 -30 2 -11 -2 -20 -8 -20 -7 0 -6 -4 3 -10 12
-8 12 -10 -3 -16 -10 -4 -16 -13 -13 -20 3 -7 1 -16 -4 -19 -5 -3 -7 -14 -5
-25 2 -11 -1 -20 -7 -20 -6 0 -8 -3 -5 -6 4 -4 13 -1 21 5 10 8 16 9 21 1 3
-5 11 -10 17 -10 6 0 6 6 -2 15 -7 9 -19 14 -27 11 -8 -4 -11 -1 -8 5 4 6 14
8 22 5 9 -4 11 -2 7 6 -5 7 -3 8 6 3 9 -6 11 -4 5 5 -5 8 -4 11 2 7 5 -3 10 0
10 8 0 8 -5 11 -10 8 -6 -3 -7 -1 -3 5 4 7 1 12 -6 12 -9 0 -9 3 2 10 12 8 12
10 1 10 -11 0 -11 3 0 16 10 13 10 17 -2 25 -10 8 -7 8 10 4 20 -6 23 -4 18 9
-4 10 -3 15 3 11 6 -4 10 -3 9 2 -1 4 -1 15 0 23 1 12 3 13 10 1 6 -9 11 -10
15 -2 4 6 2 11 -4 11 -6 0 -8 5 -5 11 5 6 12 4 22 -8 8 -10 11 -12 7 -4 -5 10
-3 12 6 6 9 -6 11 -4 5 5 -6 9 -4 11 4 5 10 -6 11 -3 2 12 -6 11 -7 24 -3 28
4 5 1 5 -7 0 -10 -5 -12 -4 -7 4 4 6 12 9 17 6 5 -4 9 -2 9 4 0 5 -4 13 -10
16 -5 3 -10 1 -10 -5 0 -6 -5 -8 -11 -4 -8 4 -7 9 2 15 7 4 16 6 19 4 4 -2 6
12 5 31 -2 23 3 38 12 41 12 5 12 7 1 15 -10 7 -8 8 5 4 12 -4 16 -2 11 6 -5
7 -3 8 7 3 11 -7 12 -6 2 7 -15 18 -7 29 15 21 12 -5 14 -2 9 11 -4 10 -3 15
3 11 6 -4 8 -17 6 -30 -3 -14 0 -27 5 -30 5 -4 9 1 9 9 0 9 5 16 11 16 5 0 8
-4 4 -9 -3 -5 -1 -12 3 -15 17 -10 8 -51 -10 -48 -12 2 -16 -3 -13 -18 3 -14
0 -18 -8 -14 -9 5 -9 4 0 -6 6 -7 9 -19 6 -26 -3 -8 -1 -14 5 -14 9 0 23 30
26 55 1 6 5 13 10 16 4 4 9 29 11 57 3 48 -6 63 -35 63 -3 0 -14 8 -24 17 -11
9 -16 12 -13 5 4 -6 3 -14 -2 -17 -11 -7 -35 20 -27 32 3 6 -1 15 -9 22 -19
16 -10 30 15 25 12 -2 18 0 14 6 -3 5 -1 16 5 23 8 9 4 12 -19 12 -16 0 -34
-2 -39 -6z m36 -15 c0 -6 -9 -12 -19 -12 -17 -2 -24 8 -13 19 9 9 32 5 32 -7z
m-12 -54 c3 -5 2 -12 -3 -15 -5 -3 -9 1 -9 9 0 17 3 19 12 6z m21 -53 c10 -12
14 -18 7 -15 -6 4 -14 3 -18 -3 -17 -27 -27 -2 -16 38 2 6 9 0 27 -20z m54 -2
c0 20 24 -19 26 -41 0 -14 -2 -23 -5 -19 -3 3 -6 11 -6 17 0 7 -8 11 -18 11
-9 -1 -14 2 -11 8 3 5 0 17 -8 26 -12 15 -11 16 5 3 9 -7 17 -10 17 -5z m10
-135 c0 -6 -4 -12 -8 -15 -5 -3 -9 1 -9 9 0 8 4 15 9 15 4 0 8 -4 8 -9z m-135
-50 c-3 -5 -1 -12 5 -16 18 -11 10 -25 -12 -21 -13 3 -25 5 -27 5 -5 1 30 41
36 41 2 0 2 -4 -2 -9z m-54 -84 c-10 -9 -11 -8 -5 6 3 10 9 15 12 12 3 -3 0
-11 -7 -18z m-35 -106 c-4 -5 0 -11 6 -13 8 -3 4 -10 -11 -17 -19 -11 -22 -11
-15 1 5 7 9 16 10 21 3 15 4 17 10 17 3 0 3 -4 0 -9z"/>
<path d="M4123 8475 c0 -8 4 -12 9 -9 5 3 6 10 3 15 -9 13 -12 11 -12 -6z"/>
<path d="M4056 8272 c-3 -5 1 -9 9 -9 8 0 12 4 9 9 -3 4 -7 8 -9 8 -2 0 -6 -4
-9 -8z"/>
<path d="M3722 8568 c-8 -8 -9 -15 -1 -25 11 -13 2 -18 -26 -14 -5 1 1 -8 14
-19 21 -18 16 -26 -13 -21 -5 1 -4 -5 3 -13 15 -18 5 -40 -12 -29 -7 4 -5 -1
3 -11 13 -16 12 -20 -3 -30 -11 -9 -13 -16 -6 -23 8 -8 7 -13 -1 -18 -8 -5 -3
-16 17 -37 18 -18 24 -31 17 -36 -6 -4 -10 -15 -8 -24 1 -10 -2 -20 -6 -23 -5
-3 -7 -12 -4 -20 7 -17 -32 -40 -41 -25 -5 8 -11 8 -19 1 -7 -6 -16 -8 -20 -4
-4 4 -4 0 0 -10 4 -11 0 -19 -10 -23 -15 -6 -15 -7 1 -19 15 -11 15 -13 -5
-24 -13 -7 -20 -16 -17 -21 3 -5 -5 -16 -17 -24 -17 -12 -19 -19 -11 -27 8 -8
9 -18 3 -30 -7 -12 -6 -20 0 -24 6 -4 8 -11 4 -16 -3 -5 10 -25 30 -43 37 -34
47 -52 21 -43 -8 4 -17 1 -21 -5 -5 -7 -11 -6 -19 6 -12 15 -13 15 -19 0 -5
-14 -9 -14 -24 -3 -9 7 -14 9 -10 5 10 -11 -11 -38 -23 -30 -5 3 -9 0 -9 -6 0
-6 -4 -8 -10 -5 -10 6 -13 -3 -13 -37 0 -10 -4 -18 -10 -18 -6 0 -2 -7 9 -15
13 -11 14 -14 4 -13 -10 2 -15 -6 -15 -24 -1 -15 -4 -30 -8 -34 -4 -4 1 -16
10 -27 15 -17 15 -19 3 -15 -26 9 -21 -143 5 -173 20 -22 20 -22 -1 -11 -18
10 -20 8 -18 -11 1 -12 3 -24 4 -27 1 -3 2 -8 1 -12 0 -5 4 -8 9 -8 6 0 10 -5
10 -11 0 -5 -4 -8 -8 -5 -5 3 -9 -1 -9 -9 0 -8 3 -15 6 -15 4 0 7 -19 7 -43
l2 -43 -72 -1 c-100 -1 -384 -13 -426 -18 -19 -2 -82 -7 -140 -10 -58 -3 -116
-8 -130 -10 -14 -3 -60 -7 -103 -10 -43 -3 -88 -7 -100 -10 -12 -2 -49 -7 -82
-10 -71 -7 -130 -14 -165 -20 -14 -2 -45 -6 -70 -10 -153 -22 -232 -35 -305
-50 -38 -8 -81 -16 -95 -19 -318 -57 -690 -188 -833 -293 -102 -75 -140 -132
-143 -214 -2 -51 2 -61 35 -105 51 -67 118 -116 246 -179 96 -47 274 -115 338
-130 12 -2 74 -18 137 -35 63 -17 131 -33 150 -36 19 -3 38 -8 41 -10 3 -2 21
-6 40 -9 19 -3 45 -8 59 -10 56 -11 79 -16 160 -30 47 -7 105 -17 130 -20 25
-3 56 -8 70 -10 14 -2 50 -7 80 -10 30 -4 62 -9 70 -10 8 -2 49 -6 90 -10 41
-4 82 -9 91 -10 8 -2 55 -6 105 -10 49 -4 100 -8 113 -10 13 -2 76 -7 140 -11
64 -3 136 -8 161 -9 357 -22 1021 -22 1370 0 137 8 269 17 295 20 17 2 65 6
108 10 43 3 86 8 95 10 9 1 53 6 96 10 43 4 87 8 96 10 9 2 41 6 71 10 30 3
65 8 79 10 14 2 45 7 70 10 379 49 844 172 1065 282 362 181 364 388 7 567
-150 76 -419 162 -652 210 -73 15 -341 65 -380 70 -106 16 -340 45 -400 51
-36 3 -76 8 -90 10 -31 4 -150 14 -245 20 -38 2 -95 7 -125 10 -56 5 -200 11
-490 21 -212 8 -526 7 -539 0 -6 -4 -8 5 -5 21 3 22 2 25 -7 13 -9 -13 -10
-13 -6 0 2 8 12 13 23 12 10 -2 16 -1 12 4 -4 4 -3 13 3 21 8 9 8 13 1 13 -6
0 -14 -4 -17 -10 -3 -5 -11 -10 -18 -10 -6 0 -2 7 9 15 16 13 16 14 2 9 -20
-7 -23 3 -9 25 7 10 4 19 -7 28 -15 12 -15 12 3 7 l20 -7 -20 17 c-16 13 -17
15 -2 10 20 -7 23 6 5 25 -11 11 -9 11 9 0 12 -7 20 -16 17 -20 -2 -4 3 -12
13 -17 19 -11 26 -41 12 -58 -6 -8 -5 -13 4 -17 8 -3 14 0 14 6 0 7 4 40 7 75
4 40 3 62 -4 62 -5 0 -10 4 -10 10 0 5 5 9 12 7 6 -1 13 11 15 28 7 71 9 80
18 87 6 5 5 8 -4 8 -9 0 -10 4 -4 13 6 6 11 19 12 27 4 51 7 66 16 73 6 5 2 6
-8 3 -12 -4 -16 -2 -11 7 5 9 3 8 -7 -1 -12 -11 -12 -14 1 -22 12 -7 11 -12
-5 -31 -13 -15 -15 -20 -5 -15 9 5 9 2 -2 -7 -14 -11 -15 -16 -5 -27 10 -10 9
-11 -2 -5 -9 5 -12 4 -7 -3 3 -6 2 -13 -3 -16 -7 -5 -8 -41 -1 -41 1 0 3 -13
5 -30 3 -19 1 -25 -4 -16 -7 11 -9 11 -14 0 -3 -8 -5 -3 -4 11 2 19 -3 25 -20
26 -12 1 -20 -3 -17 -7 3 -5 -2 -6 -11 -2 -12 4 -13 8 -5 13 8 5 7 9 -5 13
-13 5 -14 11 -5 27 6 11 7 20 3 20 -4 0 -1 5 7 10 13 8 13 10 1 10 -11 0 -10
4 4 14 11 8 24 13 30 12 5 -2 7 -1 3 1 -5 3 -8 9 -8 15 0 6 7 4 17 -3 14 -12
16 -12 8 0 -5 9 -4 12 3 7 6 -3 14 -1 18 5 5 8 3 9 -7 4 -11 -6 -12 -5 -1 6 6
7 12 17 12 23 0 5 -7 1 -16 -10 -8 -10 -13 -13 -9 -7 4 9 0 11 -12 7 -15 -5
-16 -4 -3 6 13 10 13 11 0 7 -8 -2 -14 -12 -12 -22 2 -10 -1 -14 -7 -10 -6 3
-9 0 -5 -8 3 -8 0 -18 -6 -22 -14 -9 -19 -4 -25 23 -3 16 0 19 12 15 13 -5 15
-2 10 11 -4 10 -3 15 3 11 5 -3 7 4 5 17 -3 12 1 26 8 31 7 5 2 6 -13 1 -29
-7 -26 -2 9 16 13 6 21 8 17 2 -3 -5 0 -12 8 -15 21 -8 28 4 10 18 -15 11 -15
12 0 12 9 0 16 -5 16 -11 0 -6 5 -4 10 4 8 11 9 5 5 -20 -6 -33 -5 -34 9 -15
14 19 14 19 13 1 -1 -10 4 -21 11 -23 10 -4 17 15 13 40 0 4 4 7 10 7 5 0 8 4
4 9 -3 5 0 13 6 16 6 4 8 18 4 32 -4 16 -2 22 5 18 9 -5 15 15 11 38 0 4 4 7
11 7 6 0 8 3 5 7 -4 3 -2 12 4 20 6 7 8 13 4 13 -5 0 -1 8 8 18 8 9 16 20 16
25 0 4 8 22 17 39 12 22 13 33 5 36 -6 2 -11 8 -11 13 0 4 7 6 15 3 8 -4 15
-2 16 2 0 5 2 19 3 32 2 13 -1 25 -6 28 -4 3 -8 0 -8 -5 0 -21 -16 -11 -17 11
-2 16 0 19 6 9 6 -8 11 -9 15 -3 4 6 -2 15 -11 21 -14 8 -15 10 -3 11 12 0 12
2 2 9 -11 7 -11 9 2 14 9 4 13 13 10 22 -3 8 -1 15 6 15 6 0 9 4 5 10 -3 5
-13 7 -23 4 -14 -5 -15 -4 -2 5 12 8 12 11 1 11 -9 0 -7 5 6 18 10 9 13 13 6
8 -7 -5 -13 -5 -13 0 0 5 -4 3 -9 -5 -6 -9 -11 -10 -15 -2 -4 6 -2 11 5 11 8
0 9 4 0 13 -8 10 -7 14 4 14 8 0 11 -5 8 -10 -4 -6 -1 -7 7 -2 9 6 11 4 5 -6
-5 -8 2 -5 15 6 21 18 23 19 33 3 10 -14 12 -14 28 6 10 13 16 31 14 42 -2 10
-4 23 -4 28 -1 4 -7 6 -15 3 -7 -3 -18 -1 -24 5 -6 6 -16 7 -23 3 -9 -6 -7
-11 6 -21 14 -10 22 -11 32 -2 11 8 12 7 7 -6 -4 -11 -13 -15 -25 -11 -12 4
-21 1 -24 -8 -6 -15 -35 -19 -35 -5 0 4 7 8 16 8 8 0 12 5 9 10 -4 6 -12 7
-18 3 -8 -4 -7 -1 1 9 7 9 9 18 5 20 -4 3 -2 3 5 1 8 -1 10 2 6 9 -4 6 -3 8 2
5 6 -3 16 -1 24 4 13 9 13 10 0 8 -8 -1 -23 1 -33 6 -17 7 -17 8 2 21 10 8 18
21 17 29 -3 22 -11 26 -24 13z m15 -13 c0 -8 -4 -12 -9 -9 -5 3 -6 10 -3 15 9
13 12 11 12 -6z m33 -136 c0 -8 5 -7 15 1 20 17 32 5 15 -15 -10 -12 -16 -13
-26 -4 -11 9 -18 8 -28 0 -11 -9 -16 -9 -22 0 -4 8 -3 9 5 5 6 -4 14 0 17 8 7
18 24 21 24 5z m-69 -76 c13 -16 12 -17 -3 -4 -10 7 -18 15 -18 17 0 8 8 3 21
-13z m8 -140 c-3 -19 2 -33 10 -30 5 1 9 -2 10 -8 1 -5 -3 -10 -8 -10 -18 0
-24 -15 -12 -29 9 -11 8 -17 -4 -30 -9 -9 -13 -16 -8 -16 4 0 -5 -11 -22 -25
-16 -13 -25 -24 -20 -25 6 0 17 6 25 13 8 6 6 2 -4 -10 -11 -13 -16 -23 -12
-23 3 0 -1 -11 -10 -24 -8 -14 -15 -27 -15 -30 1 -4 -2 -6 -5 -5 -4 0 -11 -5
-15 -13 -7 -10 -9 -10 -9 0 0 6 -3 11 -7 10 -5 -2 -9 2 -11 7 -2 6 -9 19 -17
31 -17 26 -5 47 21 37 17 -6 17 -5 5 10 -7 9 -17 15 -21 12 -5 -3 -11 -1 -14
4 -4 5 6 19 20 30 15 12 21 21 13 21 -7 0 -3 7 9 16 18 13 21 19 11 30 -11 14
-10 15 13 18 6 0 13 7 16 15 3 9 0 11 -8 6 -9 -6 -11 -4 -5 5 6 10 12 7 25
-10 17 -22 40 -21 40 3 0 7 -4 6 -10 -3 -5 -8 -12 -11 -16 -7 -4 4 1 14 12 22
22 17 24 18 23 8z m-111 -333 c7 0 10 5 6 12 -4 7 -3 8 5 4 6 -4 9 -12 6 -17
-4 -5 -8 -19 -10 -30 -6 -28 -18 -41 -13 -14 1 11 -2 19 -8 18 -7 -1 -11 5
-10 15 0 9 -5 16 -12 14 -8 -1 -11 2 -7 9 5 8 10 8 18 0 6 -6 17 -11 25 -11z
m-113 -59 c3 -5 2 -12 -3 -15 -5 -3 -9 1 -9 9 0 17 3 19 12 6z m-18 -106 c0
-8 -4 -12 -9 -9 -5 3 -6 10 -3 15 9 13 12 11 12 -6z m99 -59 c0 -14 -3 -23 -7
-20 -6 3 -6 22 0 42 3 10 7 -2 7 -22z m-100 -27 c1 -5 2 -13 3 -18 1 -10 27
-9 37 2 14 14 24 7 21 -15 -1 -12 3 -23 10 -23 6 0 15 -4 20 -9 4 -5 3 -6 -4
-2 -15 8 -27 -10 -16 -26 4 -7 8 -27 8 -44 1 -28 -1 -30 -16 -21 -16 10 -16
12 -1 24 16 12 16 13 0 7 -10 -3 -18 -1 -18 5 0 6 -3 10 -7 10 -5 -1 -11 0
-15 1 -5 1 -13 3 -20 4 -6 0 -12 15 -13 33 -1 18 2 30 7 27 4 -3 8 0 8 5 0 6
-4 11 -8 11 -4 0 -8 11 -8 25 0 22 9 26 12 4z"/>
<path d="M3645 8160 c-3 -6 -11 -7 -17 -4 -7 4 -8 2 -4 -5 4 -6 12 -9 17 -6
17 11 9 -8 -8 -21 -10 -7 -18 -17 -18 -22 0 -5 -11 -20 -25 -32 -14 -12 -20
-19 -14 -16 6 3 19 -3 29 -14 10 -11 14 -21 9 -22 -5 0 -13 -2 -19 -3 -5 -2
-13 -3 -18 -4 -4 0 -1 -11 8 -24 8 -13 13 -26 10 -28 -2 -3 6 -5 20 -5 13 0
22 3 20 7 -3 3 2 15 9 25 10 12 11 24 5 36 -7 12 -3 22 17 37 15 12 21 21 13
21 -7 0 -3 7 9 16 18 13 21 19 11 30 -9 11 -8 18 2 32 13 15 12 16 -3 3 -14
-10 -21 -11 -32 -2 -10 8 -16 9 -21 1z m37 -58 c-9 -7 -16 -17 -15 -22 1 -4
-6 -15 -17 -25 -14 -12 -17 -22 -10 -34 6 -11 3 -24 -9 -40 l-17 -23 -19 29
c-9 15 -12 23 -5 16 10 -9 16 -8 28 3 13 13 12 18 -6 37 -21 23 -21 23 -1 35
11 7 17 17 14 22 -3 5 4 14 15 20 14 7 19 17 16 27 -4 9 4 6 19 -8 23 -22 23
-25 7 -37z"/>
<path d="M3645 8114 c-10 -8 -15 -14 -10 -14 4 0 0 -9 -9 -19 -24 -26 -11 -48
15 -25 10 9 16 20 14 25 -3 4 4 14 15 22 15 11 17 16 8 20 -8 2 -22 -1 -33 -9z
m-7 -48 c-7 -8 -15 -12 -17 -11 -5 6 10 25 20 25 5 0 4 -6 -3 -14z"/>
<path d="M3620 7995 c-7 -9 -11 -17 -9 -20 3 -2 10 5 17 15 14 24 10 26 -8 5z"/>
<path d="M3501 7583 c-8 -14 -11 -15 -11 -3 0 11 -4 9 -12 -5 -14 -23 -18 -56
-7 -49 4 2 10 0 14 -6 4 -6 10 -8 15 -5 5 3 11 1 15 -5 4 -6 11 -8 16 -4 6 4
6 11 -1 19 -7 8 -9 19 -6 24 4 5 1 13 -5 16 -5 4 -8 13 -5 21 8 20 -1 17 -13
-3z m11 -33 c-1 -7 3 -20 10 -29 11 -14 11 -14 -3 -4 -9 7 -18 10 -21 7 -3 -3
-9 0 -14 7 -5 8 -3 10 6 4 8 -5 11 -3 8 6 -3 8 -11 13 -17 11 -7 -1 -10 2 -7
7 9 13 42 6 38 -9z"/>
<path d="M4147 8439 c7 -7 15 -10 18 -7 3 3 -2 9 -12 12 -14 6 -15 5 -6 -5z"/>
<path d="M3810 8393 c-21 -30 -25 -33 -36 -19 -12 17 -29 23 -20 7 3 -5 -1
-14 -9 -21 -17 -14 -12 -25 14 -39 13 -7 18 -6 18 4 0 7 -7 11 -16 8 -14 -4
-14 -3 -1 5 10 8 19 7 29 -1 12 -10 14 -9 9 4 -4 9 -1 16 7 16 16 0 9 -16 -25
-57 -15 -18 -18 -20 -14 -6 5 13 3 17 -7 14 -8 -3 -15 -10 -15 -16 -1 -7 -3
-14 -4 -17 -7 -13 -5 -31 3 -42 5 -7 6 -13 2 -13 -4 0 -2 -6 4 -13 6 -8 8 -18
4 -23 -4 -5 -1 -3 7 4 13 11 13 14 0 22 -14 9 -7 14 13 11 5 -1 6 3 3 8 -4 5
-2 11 3 13 5 1 11 10 13 18 2 8 7 18 11 21 4 3 9 16 10 27 1 12 5 22 9 22 4 0
7 3 7 8 -1 4 0 10 1 15 1 4 4 12 5 17 1 6 3 11 5 13 1 1 3 10 5 19 6 32 -10
27 -35 -9z m21 -6 c-6 -8 -9 -16 -6 -19 3 -2 -2 -5 -10 -5 -19 0 -19 2 1 21
19 19 31 21 15 3z m-61 -26 c0 -5 -7 -12 -16 -15 -14 -5 -15 -4 -4 9 14 17 20
19 20 6z m26 -66 c-9 -14 -13 -25 -10 -25 4 0 -1 -9 -11 -20 -10 -11 -21 -17
-25 -15 -12 7 -4 40 9 38 6 -2 18 8 27 22 9 14 19 25 21 25 3 0 -2 -11 -11
-25z"/>
<path d="M3753 8253 c0 -9 4 -10 14 -2 7 6 13 12 13 14 0 1 -6 2 -13 2 -8 0
-14 -6 -14 -14z"/>
<path d="M4135 8402 c-11 -10 -21 -24 -23 -32 -1 -10 3 -8 13 4 9 12 15 15 15
7 0 -11 3 -11 15 -1 10 9 15 9 15 1 0 -6 -6 -11 -12 -11 -9 0 -8 -4 2 -10 12
-7 12 -10 1 -10 -8 0 -11 -6 -7 -16 4 -10 2 -13 -6 -8 -7 4 -8 3 -4 -4 11 -18
0 -14 -15 5 -8 9 -9 14 -3 10 12 -7 27 17 17 27 -12 11 -32 -23 -27 -47 2 -14
0 -29 -6 -32 -7 -4 -7 -12 0 -24 7 -14 5 -23 -10 -36 -11 -10 -20 -15 -20 -10
0 4 -6 2 -13 -4 -8 -6 -18 -7 -22 -3 -5 4 -5 2 -2 -4 4 -7 -2 -22 -12 -35 -18
-25 -24 -59 -9 -59 11 0 5 -35 -10 -52 -8 -10 -8 -18 -1 -25 16 -16 -8 -28
-26 -13 -11 9 -14 7 -12 -9 1 -16 6 -20 22 -15 17 4 18 3 5 -6 -13 -10 -12
-11 3 -6 12 4 16 2 11 -6 -4 -6 -3 -8 4 -4 6 3 9 -1 7 -11 -1 -11 -10 -17 -21
-15 -18 2 -18 2 -1 -8 20 -13 41 -4 33 15 -2 7 1 18 7 24 8 8 7 11 -5 11 -9 0
-20 5 -24 11 -4 8 0 9 15 4 12 -4 22 -2 22 4 3 20 5 26 23 59 19 36 15 52 -7
33 -11 -9 -17 -8 -27 4 -7 8 -9 15 -5 15 4 0 2 6 -4 14 -10 12 -9 14 6 11 10
-1 17 -8 15 -15 -1 -7 3 -8 10 -4 8 5 7 1 -2 -11 -12 -16 -9 -15 18 4 18 12
30 27 27 32 -4 5 -2 9 4 9 6 0 7 7 4 17 -4 10 -2 14 4 10 6 -4 16 0 23 8 10
12 9 15 -5 15 -16 0 -13 15 3 15 18 1 31 17 25 32 -4 10 -2 14 5 9 6 -3 13 -2
16 3 4 5 1 13 -5 16 -5 4 -8 13 -5 21 3 7 1 16 -5 19 -5 4 -6 12 -2 18 4 7 8
19 10 27 1 8 10 21 20 29 16 12 16 13 1 8 -10 -3 -20 -2 -23 3 -9 14 -17 12
-40 -8z m39 0 c2 -4 -4 -8 -14 -8 -10 0 -16 4 -14 8 3 4 9 8 14 8 5 0 11 -4
14 -8z m-16 -94 c7 9 11 11 7 4 -4 -7 -1 -20 6 -28 10 -12 10 -15 -2 -12 -8 2
-14 -5 -14 -17 0 -11 -5 -20 -10 -20 -6 0 -16 -4 -23 -9 -11 -6 -11 -11 0 -24
7 -9 8 -13 2 -9 -15 9 -32 -13 -29 -35 4 -26 -13 -33 -34 -14 -10 9 -21 13
-26 9 -4 -5 -2 2 6 14 7 12 16 18 19 13 3 -5 11 -5 20 0 10 7 11 10 3 10 -7 0
-13 5 -13 12 0 6 3 8 7 5 10 -10 54 34 46 46 -3 6 -1 7 4 4 6 -4 13 0 17 8 3
8 1 17 -4 20 -6 4 -10 1 -10 -4 0 -6 -5 -11 -11 -11 -8 0 -8 4 1 15 6 8 9 20
5 27 -3 7 0 5 7 -4 11 -15 13 -15 26 0z m-93 -238 c-9 -16 -21 -30 -28 -30 -8
0 -8 -3 2 -9 7 -5 9 -11 4 -14 -5 -3 -14 3 -21 13 -9 14 -8 21 3 30 8 7 12 16
9 21 -3 5 0 9 5 9 6 0 11 -6 11 -12 0 -7 5 -5 11 5 17 29 20 19 4 -13z"/>
<path d="M4062 8153 c6 -7 16 -13 22 -13 6 0 5 4 -3 9 -11 7 -11 9 0 14 8 3 4
4 -8 4 -17 -1 -19 -4 -11 -14z"/>
<path d="M4030 8055 c-11 -13 -10 -14 4 -9 9 3 16 10 16 15 0 13 -6 11 -20 -6z"/>
<path d="M4195 8380 c3 -5 8 -10 11 -10 2 0 4 5 4 10 0 6 -5 10 -11 10 -5 0
-7 -4 -4 -10z"/>
<path d="M3643 8251 c0 -11 5 -18 9 -15 4 3 5 11 1 19 -7 21 -12 19 -10 -4z"/>
<path d="M3844 8075 c3 -23 12 -26 13 -5 1 11 -2 20 -7 20 -4 0 -7 -7 -6 -15z"/>
<path d="M3838 8033 c7 -3 16 -2 19 1 4 3 -2 6 -13 5 -11 0 -14 -3 -6 -6z"/>
<path d="M3829 8015 c-1 -3 -3 -9 -4 -15 -1 -5 -3 -11 -5 -12 -3 -5 -11 -41
-15 -68 -1 -14 -4 -25 -5 -25 -2 0 -9 -33 -14 -65 -2 -14 -5 -25 -6 -25 -1 0
-3 -16 -5 -35 -2 -19 -4 -36 -5 -37 -1 -2 -4 -12 -5 -23 -1 -11 -3 -21 -4 -22
-11 -14 -7 -57 5 -62 10 -4 13 -1 9 7 -4 6 0 4 8 -6 8 -10 17 -14 19 -10 3 4
3 2 1 -5 -1 -7 1 -11 6 -8 14 9 5 -62 -10 -80 -12 -16 -12 -17 3 -11 10 3 20
1 24 -5 5 -7 2 -8 -6 -3 -9 6 -11 4 -5 -5 6 -9 4 -11 -5 -5 -8 5 -11 4 -6 -3
4 -7 -1 -10 -14 -7 -11 2 -18 0 -15 -6 4 -5 13 -9 21 -9 8 0 14 -6 14 -12 0
-9 4 -8 10 2 6 10 10 11 10 3 0 -7 5 -13 11 -13 6 0 7 5 2 13 -4 6 -9 23 -11
37 -6 47 -7 408 -1 405 3 -2 5 10 4 28 -1 18 2 37 7 44 6 7 5 14 -3 18 -8 6
-7 10 2 16 10 6 11 9 2 9 -7 0 -14 -2 -14 -5z m-4 -84 c3 -5 2 -12 -3 -15 -5
-3 -9 1 -9 9 0 17 3 19 12 6z m-10 -145 c0 -80 -2 -93 -15 -88 -13 5 -13 2 1
-14 29 -34 17 -58 -21 -44 -3 1 -8 2 -11 2 -5 -1 -4 39 1 46 2 1 4 11 5 22 1
11 4 23 5 28 1 4 2 10 1 14 0 4 6 4 15 1 15 -5 15 -4 0 20 -10 14 -13 28 -8
31 5 3 10 17 11 31 3 46 4 55 10 50 2 -3 5 -48 6 -99z"/>
<path d="M3796 7802 c-2 -4 -1 -14 4 -22 7 -11 9 -9 7 8 -1 24 -3 26 -11 14z"/>
<path d="M3789 7738 c-8 -27 -5 -36 9 -30 10 4 12 7 4 10 -7 2 -10 8 -6 13 3
5 3 9 0 9 -3 0 -6 -1 -7 -2z"/>
<path d="M3777 7684 c-3 -4 -2 -16 4 -26 8 -15 14 -17 22 -9 8 8 7 15 -4 26
-8 9 -18 13 -22 9z m21 -29 c-3 -3 -9 2 -12 12 -6 14 -5 15 5 6 7 -7 10 -15 7
-18z"/>
<path d="M3943 8004 c3 -4 2 -15 -3 -25 -7 -12 -7 -20 0 -24 5 -3 10 -11 10
-16 0 -6 -4 -8 -9 -4 -6 3 -6 -6 -1 -25 6 -21 5 -30 -3 -30 -8 0 -9 -3 -1 -8
6 -4 10 -20 9 -35 -1 -15 2 -30 7 -33 4 -3 5 -10 2 -16 -4 -7 -2 -8 4 -4 7 4
12 3 12 -3 0 -5 -6 -12 -12 -14 -10 -4 -10 -6 -1 -6 7 -1 10 -7 7 -15 -3 -8
-1 -17 4 -20 6 -3 8 -16 5 -27 -4 -16 -2 -20 8 -17 9 3 14 19 14 46 -1 23 2
42 5 42 3 0 6 11 6 25 0 29 0 29 -28 14 -16 -8 -19 -8 -13 1 4 7 1 16 -6 21
-9 6 -10 9 -2 9 6 0 14 -4 17 -9 7 -10 46 -3 46 9 0 4 -8 7 -17 6 -10 0 -17 5
-15 12 1 6 -3 12 -9 12 -6 0 -9 7 -6 14 4 10 1 13 -9 9 -12 -4 -14 1 -10 22 3
16 11 33 17 39 9 8 10 7 4 -3 -4 -8 -2 -17 6 -23 11 -8 11 -9 -2 -5 -9 3 -16
-1 -16 -8 0 -7 6 -11 14 -8 7 3 13 0 13 -7 0 -6 5 -8 12 -4 7 5 8 3 2 -7 -14
-23 -13 -38 2 -32 8 3 11 9 8 14 -2 5 0 17 5 27 8 16 6 21 -15 31 -27 12 -23
36 5 27 12 -5 12 -3 -3 9 -10 8 -23 12 -27 9 -8 -5 -13 10 -10 29 0 4 -6 7
-16 7 -9 0 -13 -3 -10 -6z m21 -46 c-9 -14 -23 2 -17 18 4 12 8 13 14 3 4 -7
5 -17 3 -21z m10 -103 c16 -25 16 -25 -2 -14 -10 6 -19 18 -19 25 0 19 2 18
21 -11z m17 -74 c-5 -9 -7 -26 -6 -38 1 -13 -1 -20 -4 -17 -11 11 -6 71 6 71
8 0 9 -6 4 -16z"/>
<path d="M3523 7925 c0 -8 4 -12 9 -9 5 3 6 10 3 15 -9 13 -12 11 -12 -6z"/>
<path d="M3545 7830 c-3 -5 -3 -16 0 -22 4 -7 -1 -4 -9 6 -16 20 -28 17 -32
-7 -2 -15 59 -17 73 -4 4 5 1 7 -7 5 -9 -2 -14 4 -14 15 2 19 -2 22 -11 7z"/>
<path d="M3563 7763 c8 -12 -36 -55 -51 -51 -5 2 -10 0 -11 -5 0 -4 -8 -21
-17 -38 -8 -17 -11 -28 -6 -25 6 3 13 -1 16 -10 3 -8 11 -12 16 -9 6 4 19 1
28 -7 15 -11 16 -11 6 2 -9 13 -11 35 -4 43 1 1 3 14 4 30 2 15 11 36 20 46
13 14 14 21 5 27 -7 4 -10 3 -6 -3z m-30 -67 c3 3 4 -2 3 -13 -2 -10 -7 -18
-12 -18 -5 0 -16 -4 -24 -10 -12 -7 -13 -6 -4 6 6 8 10 22 9 32 -3 14 0 15 9
8 7 -6 15 -8 19 -5z m-3 -50 c0 -2 -7 -7 -16 -10 -8 -3 -12 -2 -9 4 6 10 25
14 25 6z"/>
<path d="M3475 7740 c3 -5 8 -10 11 -10 2 0 4 5 4 10 0 6 -5 10 -11 10 -5 0
-7 -4 -4 -10z"/>
<path d="M3985 7661 c-3 -5 -2 -12 3 -15 5 -3 9 1 9 9 0 17 -3 19 -12 6z"/>
<path d="M3747 7607 c-3 -8 -1 -20 3 -27 5 -8 6 -19 2 -25 -4 -5 -7 -37 -8
-71 -1 -34 -4 -66 -8 -72 -3 -6 -2 -13 3 -17 6 -3 8 -20 7 -38 l-3 -33 56 1
c64 1 79 21 36 49 -14 9 -25 13 -25 8 0 -5 10 -14 23 -21 12 -6 14 -9 5 -7
-12 4 -16 0 -12 -12 3 -9 -1 -6 -9 7 -8 14 -17 19 -21 13 -3 -6 0 -13 6 -15 8
-3 8 -6 2 -6 -6 -1 -19 9 -30 21 -13 14 -14 19 -4 14 9 -5 9 -2 -2 7 -12 10
-14 17 -7 24 7 7 8 17 3 25 -13 20 -14 38 -2 38 6 0 7 -7 4 -16 -4 -10 -2 -13
6 -8 7 4 8 3 4 -4 -4 -7 1 -10 13 -7 10 2 27 -3 38 -11 10 -9 11 -12 3 -8 -12
7 -13 5 -3 -8 7 -8 10 -18 6 -21 -3 -4 -2 -7 4 -7 12 0 12 59 1 61 -10 2 -25
6 -35 9 -5 1 -10 2 -13 3 -10 0 -40 37 -30 37 6 0 10 5 10 11 0 5 -6 7 -12 3
-9 -5 -9 -2 1 9 14 17 26 24 17 9 -2 -4 0 -14 6 -22 8 -13 9 -12 5 1 -3 9 -1
21 4 26 21 21 20 61 -3 77 -27 19 -34 20 -41 3z m32 -43 c-12 -16 -12 -17 3
-11 11 4 15 2 12 -6 -2 -7 -14 -14 -27 -14 -15 -2 -18 0 -9 6 17 11 18 12 4
37 -14 27 -3 40 17 20 12 -13 12 -17 0 -32z m-28 -157 c-10 -9 -11 -8 -5 6 3
10 9 15 12 12 3 -3 0 -11 -7 -18z m23 -56 c17 -19 17 -19 0 -17 -9 2 -18 10
-20 19 -3 21 -1 21 20 -2z"/>
<path d="M3766 7587 c3 -10 9 -15 12 -12 3 3 0 11 -7 18 -10 9 -11 8 -5 -6z"/>
<path d="M3495 7452 c1 -9 -1 -24 -6 -33 -6 -12 -3 -15 13 -14 12 1 24 8 26
15 3 9 -1 11 -14 7 -17 -6 -18 -6 -2 6 15 12 15 14 -2 25 -15 9 -18 8 -15 -6z"/>
<path d="M3775 7412 c-3 -8 -1 -20 5 -27 5 -6 6 -16 2 -20 -4 -5 -1 -5 6 -1 7
4 10 12 7 17 -6 8 8 13 28 10 4 -1 2 7 -4 17 -14 22 -36 24 -44 4z m35 -6 c0
-2 -7 -7 -16 -10 -8 -3 -12 -2 -9 4 6 10 25 14 25 6z"/>
<path d="M3515 7370 c-4 -6 -3 -10 1 -10 4 0 0 -8 -10 -18 -15 -18 -15 -19 10
-18 19 2 28 8 30 23 4 22 -21 39 -31 23z m21 -24 c1 -7 -4 -13 -12 -13 -9 0
-11 4 -4 12 5 7 8 15 5 18 -3 4 -2 5 2 2 4 -3 8 -11 9 -19z"/>
<path d="M785 6493 c-4 -27 -9 -59 -11 -73 -22 -144 -22 -610 1 -825 2 -16 6
-61 10 -100 3 -38 8 -81 10 -95 3 -23 6 -46 20 -159 50 -401 198 -1058 351
-1561 240 -784 555 -1517 880 -2048 35 -58 63 -106 62 -107 -2 -2 -28 -18 -58
-36 -182 -110 -323 -252 -381 -386 -33 -74 -35 -217 -6 -304 66 -194 235 -357
517 -499 155 -78 434 -178 507 -182 5 0 18 -4 31 -9 25 -10 27 -10 167 -37 55
-11 141 -25 190 -31 50 -7 104 -14 120 -16 173 -25 698 -25 880 -1 17 3 57 7
90 11 33 4 69 9 80 11 10 2 37 6 60 9 67 10 224 44 345 76 370 98 710 285 860
474 150 188 175 385 73 573 -26 47 -220 248 -230 238 -3 -3 7 -20 21 -37 35
-41 79 -130 99 -197 22 -73 16 -200 -12 -273 -92 -241 -371 -450 -776 -584
-122 -40 -307 -87 -400 -100 -22 -4 -47 -8 -55 -10 -8 -2 -42 -7 -75 -11 -33
-3 -68 -8 -78 -10 -122 -23 -670 -21 -791 2 -11 2 -40 6 -65 9 -98 11 -256 42
-370 72 -517 135 -869 381 -950 666 -38 130 -13 274 68 396 36 56 138 171 150
171 3 -1 28 -35 55 -76 27 -41 53 -77 58 -80 8 -5 -4 18 -66 126 -17 30 -22
48 -15 56 7 8 5 11 -7 10 -13 -1 -50 64 -149 259 -72 143 -139 280 -149 305
-11 25 -34 77 -51 115 -177 385 -392 973 -555 1515 -55 182 -210 776 -223 855
-3 17 -15 73 -27 125 -11 52 -23 109 -26 125 -3 17 -11 62 -19 100 -8 39 -16
84 -19 100 -3 17 -12 73 -21 125 -19 113 -22 131 -30 190 -3 25 -8 57 -11 71
-6 41 -15 110 -19 154 -2 22 -6 54 -9 70 -2 17 -8 68 -11 115 -4 47 -9 96 -10
110 -9 71 -18 336 -17 488 0 94 -1 172 -3 172 -2 0 -7 -21 -10 -47z"/>
<path d="M7367 6204 c-1 -1 -38 -5 -82 -9 -92 -7 -118 -11 -240 -32 -49 -8
-101 -17 -115 -19 -14 -3 -68 -17 -120 -32 l-95 -27 -82 -380 c-45 -209 -80
-381 -79 -383 6 -5 145 148 226 249 106 133 270 199 501 202 285 4 588 -80
735 -205 227 -191 260 -503 105 -985 -116 -360 -371 -667 -768 -927 -188 -123
-443 -237 -605 -270 -261 -54 -469 37 -536 233 l-18 54 -33 -154 c-18 -85 -35
-165 -37 -179 -3 -14 -7 -31 -9 -38 -7 -20 -135 -600 -135 -613 0 -6 11 -8 28
-5 15 3 45 8 67 11 22 2 51 7 65 9 14 3 43 8 65 11 23 3 52 7 65 10 24 5 89
18 100 20 3 1 32 7 65 14 198 43 510 143 675 217 624 282 1035 670 1278 1207
141 312 202 557 207 832 5 241 -27 404 -113 589 -147 314 -420 523 -755 580
-79 14 -350 28 -360 20z"/>
<path d="M2755 5694 c-42 -21 -65 -53 -65 -91 0 -17 -4 -34 -9 -37 -5 -4 -12
-24 -16 -45 -7 -43 1 -64 46 -122 16 -20 29 -47 29 -60 1 -23 1 -23 15 -5 22
30 19 45 -25 110 -25 36 -40 70 -40 88 0 29 1 28 37 -23 20 -30 44 -65 55 -78
22 -29 23 -69 1 -93 -15 -17 -15 -18 8 -18 37 0 67 27 75 66 8 42 -8 101 -34
129 -41 46 -69 91 -67 111 1 11 12 35 24 52 25 36 14 41 -34 16z"/>
<path d="M3451 5343 c-67 -35 -175 -143 -241 -241 -73 -109 -163 -297 -209
-437 -22 -66 -42 -131 -45 -145 -2 -14 -9 -45 -15 -70 -5 -25 -13 -67 -17 -95
-3 -27 -8 -59 -11 -70 -2 -11 -6 -94 -8 -185 -3 -148 3 -253 21 -332 8 -37 -5
-32 -130 50 -97 64 -224 178 -283 257 -79 104 -140 236 -172 377 -29 123 -32
150 -35 303 -3 131 0 181 20 345 11 96 11 153 -3 157 -42 15 -140 -190 -168
-350 -14 -81 -27 -176 -45 -337 -11 -102 -22 -198 -24 -215 -3 -16 -8 -57 -12
-90 -4 -33 -8 -62 -9 -65 -1 -3 -5 -34 -9 -70 -5 -36 -10 -74 -12 -84 -2 -11
-8 -56 -14 -100 -19 -141 -21 -150 -25 -176 -3 -14 -7 -41 -10 -60 -23 -146
-49 -268 -60 -287 -17 -26 -40 -22 -83 15 -32 28 -102 136 -102 158 0 7 -5 25
-11 41 -18 49 -27 6 -12 -60 51 -225 223 -372 288 -247 19 37 41 145 50 250 3
41 8 95 10 120 2 25 7 119 10 210 8 250 15 398 20 470 7 89 25 253 30 282 3
12 8 43 11 68 9 68 14 61 15 -21 0 -41 2 -83 4 -94 2 -11 7 -40 10 -65 24
-178 118 -417 231 -587 68 -102 197 -240 279 -298 71 -51 150 -87 224 -105 51
-12 56 -12 71 7 13 17 15 32 9 79 -9 78 -3 265 11 334 6 30 14 66 16 80 52
265 225 683 382 919 53 80 132 170 153 172 5 1 15 2 22 3 49 8 69 -59 61 -205
-2 -57 -7 -115 -9 -129 -2 -14 -7 -45 -10 -70 -4 -25 -11 -61 -16 -80 -5 -19
-9 -44 -9 -55 0 -18 2 -18 25 6 14 14 28 37 30 52 3 15 7 39 10 55 7 32 25
137 31 172 10 63 11 260 2 310 -27 147 -114 196 -237 133z"/>
<path d="M5582 4583 c-20 -8 -122 -144 -116 -155 7 -12 6 -13 83 85 58 73 62
82 33 70z"/>
<path d="M5740 4557 c-103 -43 -186 -112 -214 -179 -46 -108 11 -153 122 -97
60 30 98 64 145 134 l27 40 0 -38 c0 -42 28 -77 60 -77 64 0 177 95 224 188
32 62 20 69 -19 11 -42 -65 -103 -126 -136 -138 -27 -9 -30 -8 -44 19 -8 16
-15 47 -15 70 0 36 -3 40 -24 40 -31 0 -50 -19 -74 -73 -22 -49 -103 -127
-131 -127 -11 0 -25 9 -31 19 -27 51 34 142 125 185 30 14 55 30 55 36 0 14
-7 13 -70 -13z"/>
<path d="M4020 4542 c-71 -35 -126 -191 -145 -407 -2 -16 -3 -36 -4 -42 0 -7
-6 -13 -12 -13 -24 0 -138 -60 -174 -91 -21 -19 -47 -53 -57 -75 -21 -48 -79
-104 -108 -104 -24 0 -36 22 -45 80 -4 25 -10 48 -13 52 -15 16 -58 -20 -80
-65 -33 -70 -105 -139 -140 -135 -35 4 -40 41 -13 102 15 34 33 54 73 79 29
18 61 36 71 40 26 10 21 30 -5 22 -138 -42 -265 -156 -273 -245 -4 -55 17 -75
75 -70 65 5 173 87 209 159 l18 34 7 -41 c8 -51 41 -77 85 -67 29 6 109 58
123 79 5 7 13 3 22 -10 13 -18 23 -21 62 -17 58 5 87 20 151 77 l50 45 22 -29
c25 -35 48 -37 99 -11 47 25 97 77 157 166 57 84 48 75 71 79 11 3 41 9 68 16
27 6 50 9 53 7 2 -2 -11 -15 -29 -29 -43 -33 -118 -108 -118 -118 0 -5 -3 -16
-6 -25 -6 -14 -3 -14 30 2 31 14 42 15 70 5 30 -11 74 -9 99 5 15 9 -15 32
-49 39 -18 3 -48 1 -65 -5 -18 -6 -34 -9 -37 -6 -3 2 30 37 72 78 58 56 76 80
76 100 0 32 -13 34 -85 12 -27 -9 -64 -16 -82 -17 -27 -1 -32 -6 -37 -32 -12
-64 -116 -200 -177 -231 -26 -14 -30 -13 -47 6 -35 36 -35 74 -1 141 77 152
125 366 99 443 -13 41 -14 41 -60 17z m33 -30 c8 -38 -1 -125 -18 -192 -25
-96 -80 -240 -91 -240 -9 0 3 245 15 305 13 67 20 84 48 123 29 39 39 40 46 4z
m-176 -489 c2 -21 6 -44 8 -50 2 -7 -14 -31 -36 -53 -62 -61 -119 -53 -119 17
0 25 9 42 36 69 33 31 93 66 103 58 1 -1 5 -20 8 -41z"/>
<path d="M5394 4535 c-14 -21 -15 -31 -6 -50 25 -53 83 -10 68 49 -8 34 -40
34 -62 1z"/>
<path d="M5206 4491 c-3 -4 25 -23 63 -40 38 -17 74 -38 80 -45 18 -21 16
-102 -4 -206 -3 -14 -7 -34 -9 -45 -2 -11 -11 -47 -19 -80 -8 -33 -23 -103
-32 -155 -29 -172 -56 -246 -112 -316 -52 -64 -41 -75 20 -19 80 72 125 177
191 440 52 212 68 331 52 383 -5 16 -21 24 -64 33 -31 6 -78 22 -104 35 -53
27 -55 27 -62 15z"/>
<path d="M2637 4445 c-33 -24 -41 -134 -17 -237 24 -103 93 -208 135 -208 70
0 69 216 -2 357 -39 79 -83 112 -116 88z"/>
<path d="M4587 4402 c-23 -26 -22 -69 3 -82 39 -21 81 55 48 88 -17 17 -32 15
-51 -6z"/>
<path d="M4982 4374 c-29 -14 -69 -46 -90 -71 -99 -121 -206 -203 -262 -203
-27 0 -26 33 2 86 21 41 20 71 -4 78 -104 28 -135 42 -160 68 -15 17 -28 25
-28 18 0 -24 21 -49 60 -71 43 -24 49 -44 29 -96 -17 -46 -19 -120 -3 -134 17
-14 84 1 148 33 42 21 135 93 149 115 12 19 23 16 24 -9 1 -12 16 -35 33 -52
28 -28 36 -31 93 -31 51 1 73 7 124 34 72 39 178 139 185 175 3 14 5 26 4 26
-1 0 -29 -27 -63 -59 -62 -61 -120 -94 -184 -106 -45 -8 -74 5 -94 45 -14 28
-14 30 2 31 79 3 147 38 163 82 8 25 7 34 -6 49 -23 25 -61 23 -122 -8z m52
-20 c4 -10 -1 -25 -11 -37 -18 -19 -82 -52 -89 -45 -9 10 34 74 56 85 33 16
37 16 44 -3z"/>
<path d="M4874 3834 c-12 -14 -33 -50 -45 -79 -20 -48 -26 -54 -65 -65 -24 -7
-41 -16 -39 -21 3 -4 20 -3 38 2 45 13 45 13 37 -29 -9 -49 4 -85 27 -80 14 3
17 12 15 45 -1 23 2 44 8 48 5 3 10 11 10 16 0 6 -5 7 -11 3 -8 -4 -8 0 0 15
14 25 23 28 14 4 -4 -13 1 -11 19 7 13 14 50 34 82 44 31 11 62 28 67 38 13
25 -1 23 -61 -7 -27 -14 -52 -25 -54 -25 -3 0 2 16 10 36 8 20 14 43 12 52 -5
25 -38 23 -64 -4z m46 3 c0 -23 -37 -100 -51 -108 -18 -9 -19 -7 -13 18 11 48
36 93 50 93 8 0 14 -1 14 -3z"/>
<path d="M4169 3836 c-77 -27 -142 -100 -183 -206 -30 -76 -97 -283 -92 -287
8 -8 67 73 92 125 13 28 28 52 32 52 5 0 32 -25 61 -55 29 -30 60 -55 70 -55
20 0 53 20 33 20 -16 0 -122 99 -122 113 0 6 3 8 6 4 11 -11 118 50 161 92
129 125 92 251 -58 197z m42 -26 c42 -23 7 -138 -60 -198 -29 -25 -122 -74
-129 -68 -7 8 49 180 70 215 12 18 35 39 52 47 38 16 42 17 67 4z"/>
<path d="M4582 3625 c-18 -8 -56 -37 -84 -65 -69 -69 -121 -95 -181 -91 -31 2
-13 24 28 35 21 6 43 19 49 29 32 51 -84 29 -129 -25 -30 -35 -30 -41 -8 -63
39 -39 158 7 236 92 52 55 86 71 104 48 16 -23 -4 -69 -26 -59 -30 12 -45 9
-49 -10 -4 -17 1 -18 43 -14 53 6 147 65 173 108 13 20 8 18 -24 -11 -21 -19
-51 -43 -66 -52 l-28 -17 20 32 c24 40 24 42 4 62 -19 19 -20 19 -62 1z m-243
-106 c-22 -13 -39 -11 -33 5 7 17 37 26 43 13 2 -5 -3 -13 -10 -18z"/>
<path d="M3564 3550 c-35 -14 -66 -75 -66 -130 0 -53 20 -94 59 -123 33 -25
40 -15 13 20 -25 34 -19 56 29 117 31 39 36 61 25 104 -7 23 -24 27 -60 12z"/>
<path d="M3670 3523 c26 -34 21 -60 -26 -121 -37 -49 -44 -91 -18 -117 15 -14
19 -14 47 3 81 47 93 164 24 240 -31 33 -54 29 -27 -5z"/>
<path d="M2911 3383 c-29 -108 -39 -132 -65 -155 -16 -16 -26 -28 -21 -28 5 0
0 -7 -11 -15 -22 -17 -53 -20 -55 -5 -1 6 -2 15 -3 22 -2 17 -20 20 -39 5 -26
-18 -7 -67 25 -67 25 0 85 33 106 59 14 17 13 8 -8 -116 -8 -51 9 -98 40 -108
27 -9 36 0 20 20 -13 16 -17 78 -8 130 15 80 21 96 35 91 8 -4 21 -6 29 -6 8
0 23 -15 34 -32 34 -55 4 -158 -52 -186 -18 -8 -19 -11 -6 -11 26 -1 89 58
109 103 34 77 -5 145 -86 146 l-40 1 63 23 c72 27 82 34 63 45 -8 5 -30 -1
-58 -16 -24 -14 -47 -23 -50 -19 -3 3 6 45 21 93 35 116 37 147 11 151 -18 2
-24 -11 -54 -125z"/>
<path d="M2480 3463 c-132 -46 -238 -177 -254 -313 -6 -50 16 -94 53 -110 41
-17 115 -1 197 41 39 20 60 25 65 18 4 -7 18 -9 37 -4 35 7 122 62 122 76 0 6
-15 -1 -33 -15 -19 -15 -39 -26 -45 -26 -40 0 1 64 56 87 19 8 32 17 29 20
-11 11 -113 -46 -157 -87 -47 -45 -103 -75 -157 -84 -74 -14 -112 75 -80 185
41 141 173 242 239 182 17 -15 19 -15 38 2 45 41 -24 58 -110 28z"/>
<path d="M3187 3349 c-16 -4 -43 -19 -61 -33 -19 -14 -36 -23 -39 -19 -3 3 -5
-8 -3 -23 6 -59 80 -66 166 -17 50 29 100 76 100 95 0 7 -7 3 -15 -10 -36 -50
-163 -103 -185 -77 -12 15 -7 19 35 29 35 9 55 24 55 41 0 18 -20 23 -53 14z
m-2 -36 c-11 -7 -26 -13 -34 -13 -12 1 -10 6 8 20 12 11 28 17 34 13 6 -4 3
-11 -8 -20z"/>
</g>
</svg>
